<svg width="32" height="32" viewBox="0 0 32 32" fill="none" xmlns="http://www.w3.org/2000/svg">
<path fill-rule="evenodd" clip-rule="evenodd" d="M16 32C24.8366 32 32 24.8366 32 16C32 7.16344 24.8366 -6.26248e-07 16 -1.39876e-06C7.16345 -2.17128e-06 2.17128e-06 7.16344 1.39876e-06 16C6.26249e-07 24.8366 7.16344 32 16 32ZM17.2929 23.7071C17.6834 24.0976 18.3166 24.0976 18.7071 23.7071C19.0976 23.3166 19.0976 22.6834 18.7071 22.2929L11.9142 15.5L18.7071 8.70711C19.0976 8.31658 19.0976 7.68342 18.7071 7.29289C18.3166 6.90237 17.6834 6.90237 17.2929 7.29289L9.79289 14.7929C9.40237 15.1834 9.40237 15.8166 9.79289 16.2071L17.2929 23.7071Z" fill="#EFEFFF" fill-opacity="0.8"/>
</svg>
