<svg width="32" height="32" viewBox="0 0 32 32" fill="none" xmlns="http://www.w3.org/2000/svg">
<path fill-rule="evenodd" clip-rule="evenodd" d="M16 32C7.16344 32 -6.26248e-07 24.8366 -1.39876e-06 16C-2.17128e-06 7.16344 7.16344 -6.26248e-07 16 -1.39876e-06C24.8366 -2.17128e-06 32 7.16344 32 16C32 24.8366 24.8366 32 16 32ZM14.7071 23.7071C14.3166 24.0976 13.6834 24.0976 13.2929 23.7071C12.9024 23.3166 12.9024 22.6834 13.2929 22.2929L20.0858 15.5L13.2929 8.70711C12.9024 8.31658 12.9024 7.68342 13.2929 7.29289C13.6834 6.90237 14.3166 6.90237 14.7071 7.29289L22.2071 14.7929C22.5976 15.1834 22.5976 15.8166 22.2071 16.2071L14.7071 23.7071Z" fill="#EFEFFF" fill-opacity="0.8"/>
</svg>
