<svg width="348" height="48" viewBox="0 0 348 48" fill="none" xmlns="http://www.w3.org/2000/svg">
<rect width="348" height="48" rx="10" fill="#1A1414"/>
<path fill-rule="evenodd" clip-rule="evenodd" d="M35.5 11C28.0414 11 22 16.964 22 24.327C22 30.2174 25.8702 35.2079 31.232 36.975C31.9033 37.0977 32.1519 36.6887 32.1519 36.3287C32.1519 36.0097 32.1436 35.1752 32.1354 34.0626C28.3812 34.8643 27.5856 32.2791 27.5856 32.2791C26.9724 30.741 26.0856 30.332 26.0856 30.332C24.8591 29.5057 26.1768 29.522 26.1768 29.522C27.5276 29.6202 28.2486 30.8965 28.2486 30.8965C29.4503 32.9336 31.4061 32.3445 32.1768 32.0009C32.3011 31.1419 32.6492 30.5529 33.0304 30.2174C30.0304 29.882 26.8812 28.7367 26.8812 23.6316C26.8812 22.1754 27.4033 20.9891 28.2735 20.0565C28.1326 19.7211 27.6685 18.363 28.4061 16.5304C28.4061 16.5304 29.5414 16.1705 32.1188 17.8967C33.1961 17.6022 34.3481 17.4549 35.5 17.4467C36.6436 17.4467 37.8039 17.6022 38.8812 17.8967C41.4586 16.1705 42.5939 16.5304 42.5939 16.5304C43.3315 18.363 42.8674 19.7211 42.7265 20.0565C43.5884 20.9891 44.1105 22.1754 44.1105 23.6316C44.1105 28.753 40.953 29.8738 37.9447 30.2093C38.4254 30.6183 38.8646 31.4364 38.8646 32.6799C38.8646 34.4634 38.8481 35.8951 38.8481 36.3369C38.8481 36.6969 39.0884 37.1059 39.7762 36.975C45.1381 35.2079 49 30.2174 49 24.3352C49 16.964 42.9586 11 35.5 11Z" fill="white"/>
<line x1="68.5" y1="8.5" x2="68.5" y2="39.5" stroke="#6C5656" stroke-linecap="round"/>
<path d="M158.735 21.4199C158.605 20.9707 158.4 20.5866 158.12 20.2676C157.846 19.9421 157.508 19.6947 157.104 19.5254C156.701 19.3496 156.242 19.2617 155.727 19.2617C154.998 19.2617 154.357 19.444 153.803 19.8086C153.257 20.1732 152.827 20.707 152.514 21.4102C152.208 22.1068 152.055 22.9434 152.055 23.9199C152.055 24.903 152.208 25.7428 152.514 26.4395C152.82 27.1361 153.25 27.6699 153.803 28.041C154.357 28.4056 155.008 28.5911 155.757 28.5977C156.427 28.5977 157.01 28.474 157.505 28.2266C157.999 27.9792 158.374 27.6309 158.628 27.1816C158.882 26.7324 159.012 26.2018 159.018 25.5898L159.624 25.6777H155.952V23.4414H161.85V25.2188C161.85 26.4362 161.593 27.4974 161.079 28.4023C160.565 29.3008 159.842 29.9909 158.911 30.4727C157.986 30.9544 156.932 31.1953 155.747 31.1953C154.425 31.1953 153.26 30.9023 152.251 30.3164C151.248 29.724 150.47 28.8809 149.917 27.7871C149.363 26.6934 149.087 25.4108 149.087 23.9395C149.087 22.4551 149.373 21.1628 149.946 20.0625C150.519 18.9622 151.303 18.1224 152.3 17.543C153.296 16.957 154.422 16.6641 155.678 16.6641C156.727 16.6641 157.687 16.8659 158.559 17.2695C159.438 17.6667 160.151 18.2266 160.698 18.9492C161.251 19.6719 161.593 20.4954 161.723 21.4199H158.735ZM166.598 31H163.669V16.8594H166.598V31ZM168.094 16.8594H179.676V19.2812H175.34V31H172.44V19.2812H168.094V16.8594ZM181.172 16.8594H184.102V22.7188H190.235V16.8594H193.164V31H190.235V25.1309H184.102V31H181.172V16.8594ZM206.916 16.8594V26.0488C206.916 27.071 206.672 27.9727 206.184 28.7539C205.702 29.5286 205.015 30.1309 204.123 30.5605C203.238 30.9837 202.219 31.1953 201.066 31.1953C199.901 31.1953 198.879 30.9837 198 30.5605C197.121 30.1309 196.438 29.5286 195.949 28.7539C195.468 27.9727 195.227 27.071 195.227 26.0488V16.8594H198.156V25.8047C198.156 26.3451 198.277 26.8268 198.518 27.25C198.759 27.6732 199.097 28.0085 199.533 28.2559C199.976 28.4967 200.487 28.6172 201.066 28.6172C201.639 28.6172 202.147 28.4967 202.59 28.2559C203.039 28.0085 203.381 27.6732 203.615 27.25C203.85 26.8268 203.97 26.3451 203.977 25.8047V16.8594H206.916ZM208.969 16.8594H214.594C215.603 16.8594 216.459 17.0124 217.162 17.3184C217.865 17.6178 218.392 18.041 218.744 18.5879C219.102 19.1348 219.281 19.7695 219.281 20.4922C219.281 21.0326 219.17 21.5111 218.949 21.9277C218.734 22.3379 218.435 22.6797 218.051 22.9531C217.667 23.2201 217.227 23.4089 216.732 23.5195V23.6562C217.273 23.6823 217.781 23.8385 218.256 24.125C218.731 24.4115 219.112 24.8118 219.398 25.3262C219.685 25.834 219.828 26.4264 219.828 27.1035C219.828 27.8587 219.639 28.5293 219.262 29.1152C218.891 29.7012 218.34 30.1634 217.611 30.502C216.882 30.834 216 31 214.965 31H208.969V16.8594ZM214.369 28.5879C214.922 28.5879 215.378 28.5163 215.736 28.373C216.101 28.2233 216.368 28.0182 216.537 27.7578C216.713 27.4909 216.797 27.1751 216.791 26.8105C216.797 26.4199 216.703 26.0716 216.508 25.7656C216.319 25.4531 216.045 25.2122 215.687 25.043C215.336 24.8737 214.922 24.7891 214.447 24.7891H211.898V28.5879H214.369ZM214.154 22.7871C214.564 22.7806 214.932 22.7057 215.258 22.5625C215.59 22.4128 215.847 22.2012 216.029 21.9277C216.218 21.6543 216.312 21.332 216.312 20.9609C216.312 20.6159 216.228 20.3132 216.059 20.0527C215.896 19.7923 215.655 19.5938 215.336 19.457C215.023 19.3138 214.649 19.2422 214.213 19.2422H211.898V22.7871H214.154ZM236.705 30.3066H220.924V29.2617H236.705V30.3066ZM229.361 29.7305H228.16V25.4141H229.361V29.7305ZM234.654 21.6641H224.176V25.3262H222.955V20.6387H233.443V17.6602H222.896V16.6152H234.654V21.6641ZM235.064 25.7949H222.955V24.7598H235.064V25.7949ZM253.115 21.1953H249.13V20.1602H253.115V21.1953ZM253.105 25.5312H248.984V24.4961H253.105V25.5312ZM257.06 32.5234H255.878V15.2871H257.06V32.5234ZM253.603 31.6055H252.421V15.7656H253.603V31.6055ZM249.765 17.543C249.759 19.0339 249.524 20.4596 249.062 21.8203C248.6 23.181 247.88 24.4538 246.904 25.6387C245.927 26.8236 244.693 27.862 243.203 28.7539L242.441 27.8359C243.789 27.0352 244.918 26.1042 245.83 25.043C246.747 23.9818 247.431 22.8359 247.88 21.6055C248.336 20.375 248.567 19.0859 248.574 17.7383V17.543H249.765ZM249.111 18.5781H243.134V17.543H249.111V18.5781ZM275.079 25.0723H259.318V24.0371H275.079V25.0723ZM267.765 24.5156H266.554V21.2539H267.765V24.5156ZM267.599 16.4297C267.599 17.4062 267.267 18.2917 266.603 19.0859C265.939 19.8737 265.086 20.5312 264.044 21.0586C263.003 21.5794 261.919 21.944 260.792 22.1523L260.314 21.1465C261.277 21.0098 262.244 20.7168 263.214 20.2676C264.184 19.8184 264.982 19.2585 265.607 18.5879C266.232 17.9173 266.544 17.1979 266.544 16.4297V15.5508H267.599V16.4297ZM267.775 16.4297C267.775 17.1914 268.09 17.9076 268.722 18.5781C269.36 19.2487 270.161 19.8118 271.124 20.2676C272.094 20.7168 273.061 21.0098 274.025 21.1465L273.517 22.1523C272.41 21.9505 271.336 21.5859 270.294 21.0586C269.259 20.5247 268.406 19.8607 267.736 19.0664C267.065 18.2656 266.733 17.3867 266.74 16.4297V15.5508H267.775V16.4297ZM273.058 32.5234H271.818V27.9238H261.066V26.918H273.058V32.5234Z" fill="white"/>
</svg>
