<svg width="396" height="52" viewBox="0 0 396 52" fill="none" xmlns="http://www.w3.org/2000/svg">
<rect width="396" height="52" fill="#1A1414"/>
<path fill-rule="evenodd" clip-rule="evenodd" d="M129.562 14.625C123.036 14.625 117.75 19.8435 117.75 26.2862C117.75 31.4403 121.136 35.8069 125.828 37.3532C126.415 37.4605 126.633 37.1026 126.633 36.7876C126.633 36.5085 126.626 35.7783 126.618 34.8047C123.334 35.5063 122.637 33.2442 122.637 33.2442C122.101 31.8984 121.325 31.5405 121.325 31.5405C120.252 30.8175 121.405 30.8318 121.405 30.8318C122.587 30.9177 123.218 32.0344 123.218 32.0344C124.269 33.8169 125.98 33.3015 126.655 33.0008C126.763 32.2492 127.068 31.7338 127.402 31.4403C124.777 31.1468 122.021 30.1446 122.021 25.6777C122.021 24.4035 122.478 23.3655 123.239 22.5494C123.116 22.2559 122.71 21.0676 123.355 19.4641C123.355 19.4641 124.349 19.1492 126.604 20.6596C127.547 20.4019 128.555 20.273 129.562 20.2659C130.563 20.2659 131.578 20.4019 132.521 20.6596C134.776 19.1492 135.77 19.4641 135.77 19.4641C136.415 21.0676 136.009 22.2559 135.886 22.5494C136.64 23.3655 137.097 24.4035 137.097 25.6777C137.097 30.1589 134.334 31.1396 131.702 31.4331C132.122 31.791 132.507 32.5069 132.507 33.595C132.507 35.1555 132.492 36.4082 132.492 36.7948C132.492 37.1098 132.702 37.4677 133.304 37.3532C137.996 35.8069 141.375 31.4403 141.375 26.2933C141.375 19.8435 136.089 14.625 129.562 14.625Z" fill="white"/>
<path d="M162.735 23.4199C162.605 22.9707 162.4 22.5866 162.12 22.2676C161.846 21.9421 161.508 21.6947 161.104 21.5254C160.701 21.3496 160.242 21.2617 159.727 21.2617C158.998 21.2617 158.357 21.444 157.803 21.8086C157.257 22.1732 156.827 22.707 156.514 23.4102C156.208 24.1068 156.055 24.9434 156.055 25.9199C156.055 26.903 156.208 27.7428 156.514 28.4395C156.82 29.1361 157.25 29.6699 157.803 30.041C158.357 30.4056 159.008 30.5911 159.757 30.5977C160.427 30.5977 161.01 30.474 161.505 30.2266C161.999 29.9792 162.374 29.6309 162.628 29.1816C162.882 28.7324 163.012 28.2018 163.018 27.5898L163.624 27.6777H159.952V25.4414H165.85V27.2188C165.85 28.4362 165.593 29.4974 165.079 30.4023C164.565 31.3008 163.842 31.9909 162.911 32.4727C161.986 32.9544 160.932 33.1953 159.747 33.1953C158.425 33.1953 157.26 32.9023 156.251 32.3164C155.248 31.724 154.47 30.8809 153.917 29.7871C153.363 28.6934 153.087 27.4108 153.087 25.9395C153.087 24.4551 153.373 23.1628 153.946 22.0625C154.519 20.9622 155.303 20.1224 156.3 19.543C157.296 18.957 158.422 18.6641 159.678 18.6641C160.727 18.6641 161.687 18.8659 162.559 19.2695C163.438 19.6667 164.151 20.2266 164.698 20.9492C165.251 21.6719 165.593 22.4954 165.723 23.4199H162.735ZM170.598 33H167.669V18.8594H170.598V33ZM172.094 18.8594H183.676V21.2812H179.34V33H176.44V21.2812H172.094V18.8594ZM185.172 18.8594H188.102V24.7188H194.235V18.8594H197.164V33H194.235V27.1309H188.102V33H185.172V18.8594ZM210.916 18.8594V28.0488C210.916 29.071 210.672 29.9727 210.184 30.7539C209.702 31.5286 209.015 32.1309 208.123 32.5605C207.238 32.9837 206.219 33.1953 205.066 33.1953C203.901 33.1953 202.879 32.9837 202 32.5605C201.121 32.1309 200.438 31.5286 199.949 30.7539C199.468 29.9727 199.227 29.071 199.227 28.0488V18.8594H202.156V27.8047C202.156 28.3451 202.277 28.8268 202.518 29.25C202.759 29.6732 203.097 30.0085 203.533 30.2559C203.976 30.4967 204.487 30.6172 205.066 30.6172C205.639 30.6172 206.147 30.4967 206.59 30.2559C207.039 30.0085 207.381 29.6732 207.615 29.25C207.85 28.8268 207.97 28.3451 207.977 27.8047V18.8594H210.916ZM212.969 18.8594H218.594C219.603 18.8594 220.459 19.0124 221.162 19.3184C221.865 19.6178 222.392 20.041 222.744 20.5879C223.102 21.1348 223.281 21.7695 223.281 22.4922C223.281 23.0326 223.17 23.5111 222.949 23.9277C222.734 24.3379 222.435 24.6797 222.051 24.9531C221.667 25.2201 221.227 25.4089 220.732 25.5195V25.6562C221.273 25.6823 221.781 25.8385 222.256 26.125C222.731 26.4115 223.112 26.8118 223.398 27.3262C223.685 27.834 223.828 28.4264 223.828 29.1035C223.828 29.8587 223.639 30.5293 223.262 31.1152C222.891 31.7012 222.34 32.1634 221.611 32.502C220.882 32.834 220 33 218.965 33H212.969V18.8594ZM218.369 30.5879C218.922 30.5879 219.378 30.5163 219.736 30.373C220.101 30.2233 220.368 30.0182 220.537 29.7578C220.713 29.4909 220.797 29.1751 220.791 28.8105C220.797 28.4199 220.703 28.0716 220.508 27.7656C220.319 27.4531 220.045 27.2122 219.687 27.043C219.336 26.8737 218.922 26.7891 218.447 26.7891H215.898V30.5879H218.369ZM218.154 24.7871C218.564 24.7806 218.932 24.7057 219.258 24.5625C219.59 24.4128 219.847 24.2012 220.029 23.9277C220.218 23.6543 220.312 23.332 220.312 22.9609C220.312 22.6159 220.228 22.3132 220.059 22.0527C219.896 21.7923 219.655 21.5938 219.336 21.457C219.023 21.3138 218.649 21.2422 218.213 21.2422H215.898V24.7871H218.154ZM240.705 32.3066H224.924V31.2617H240.705V32.3066ZM233.361 31.7305H232.16V27.4141H233.361V31.7305ZM238.654 23.6641H228.176V27.3262H226.955V22.6387H237.443V19.6602H226.896V18.6152H238.654V23.6641ZM239.064 27.7949H226.955V26.7598H239.064V27.7949ZM257.115 23.1953H253.13V22.1602H257.115V23.1953ZM257.105 27.5312H252.984V26.4961H257.105V27.5312ZM261.06 34.5234H259.878V17.2871H261.06V34.5234ZM257.603 33.6055H256.421V17.7656H257.603V33.6055ZM253.765 19.543C253.759 21.0339 253.524 22.4596 253.062 23.8203C252.6 25.181 251.88 26.4538 250.904 27.6387C249.927 28.8236 248.693 29.862 247.203 30.7539L246.441 29.8359C247.789 29.0352 248.918 28.1042 249.83 27.043C250.747 25.9818 251.431 24.8359 251.88 23.6055C252.336 22.375 252.567 21.0859 252.574 19.7383V19.543H253.765ZM253.111 20.5781H247.134V19.543H253.111V20.5781ZM279.079 27.0723H263.318V26.0371H279.079V27.0723ZM271.765 26.5156H270.554V23.2539H271.765V26.5156ZM271.599 18.4297C271.599 19.4062 271.267 20.2917 270.603 21.0859C269.939 21.8737 269.086 22.5312 268.044 23.0586C267.003 23.5794 265.919 23.944 264.792 24.1523L264.314 23.1465C265.277 23.0098 266.244 22.7168 267.214 22.2676C268.184 21.8184 268.982 21.2585 269.607 20.5879C270.232 19.9173 270.544 19.1979 270.544 18.4297V17.5508H271.599V18.4297ZM271.775 18.4297C271.775 19.1914 272.09 19.9076 272.722 20.5781C273.36 21.2487 274.161 21.8118 275.124 22.2676C276.094 22.7168 277.061 23.0098 278.025 23.1465L277.517 24.1523C276.41 23.9505 275.336 23.5859 274.294 23.0586C273.259 22.5247 272.406 21.8607 271.736 21.0664C271.065 20.2656 270.733 19.3867 270.74 18.4297V17.5508H271.775V18.4297ZM277.058 34.5234H275.818V29.9238H265.066V28.918H277.058V34.5234Z" fill="white"/>
</svg>
