<svg width="348" height="48" viewBox="0 0 348 48" fill="none" xmlns="http://www.w3.org/2000/svg">
<rect x="0.5" y="0.5" width="347" height="47" rx="9.5" fill="white"/>
<path fill-rule="evenodd" clip-rule="evenodd" d="M47.9988 24.3946C47.9988 23.564 47.9188 22.7666 47.7716 22H36V26.5288H42.7271C42.4374 27.9925 41.5567 29.2322 40.2331 30.0628V33H44.2732C46.6364 30.9617 48 27.9605 48 24.3946H47.9988Z" fill="#3E82F1"/>
<path fill-rule="evenodd" clip-rule="evenodd" d="M35.916 36C39.214 36 41.9793 34.8939 44 33.0086L40.0518 29.9114C38.9574 30.6522 37.5593 31.0896 35.9148 31.0896C32.733 31.0896 30.0403 28.9181 29.0794 26H25V29.1984C27.0104 33.2331 31.1404 36 35.916 36Z" fill="#32A753"/>
<path fill-rule="evenodd" clip-rule="evenodd" d="M29 26.1156C28.7733 25.4474 28.6438 24.7342 28.6438 24C28.6438 23.2658 28.7733 22.5525 29 21.8844V19H25.2075C24.4385 20.503 24 22.2033 24 24C24 25.7967 24.231 27.497 25 29L29 26.1156Z" fill="#F9BB00"/>
<path fill-rule="evenodd" clip-rule="evenodd" d="M35.8647 16.9104C37.6491 16.9104 39.2526 17.5338 40.5124 18.7562L44 15.2147C41.8937 13.2235 39.1415 12 35.8647 12C31.1115 12 27.0009 14.7669 25 18.8016L29.0614 22C30.0177 19.0819 32.6978 16.9104 35.8647 16.9104Z" fill="#E74133"/>
<line x1="68.5" y1="8.5" x2="68.5" y2="39.5" stroke="#E1E3EC" stroke-linecap="round"/>
<path d="M154.294 35.1992C153.337 35.1992 152.5 35.0625 151.784 34.7891C151.068 34.5156 150.505 34.1283 150.094 33.627C149.691 33.1257 149.46 32.5397 149.401 31.8691H152.243C152.328 32.2858 152.552 32.5951 152.917 32.7969C153.288 33.0052 153.77 33.1061 154.362 33.0996C155.065 33.1061 155.612 32.9434 156.003 32.6113C156.4 32.2858 156.602 31.7747 156.608 31.0781V29.125H156.481L156.442 29.2031C156.273 29.5221 156.061 29.8021 155.807 30.043C155.56 30.2773 155.234 30.4727 154.831 30.6289C154.434 30.7786 153.971 30.8535 153.444 30.8535C152.624 30.8535 151.888 30.6582 151.237 30.2676C150.586 29.877 150.072 29.291 149.694 28.5098C149.323 27.7285 149.137 26.7682 149.137 25.6289C149.137 24.4766 149.329 23.4967 149.714 22.6895C150.098 21.8757 150.612 21.2669 151.257 20.8633C151.908 20.4596 152.637 20.2578 153.444 20.2578C153.965 20.2578 154.421 20.3392 154.811 20.502C155.202 20.6647 155.514 20.873 155.749 21.127C155.99 21.3743 156.201 21.6673 156.384 22.0059C156.416 22.0514 156.445 22.1068 156.471 22.1719H156.589V20.3945H159.46V31.1172C159.46 31.9961 159.242 32.7415 158.805 33.3535C158.369 33.9655 157.764 34.4245 156.989 34.7305C156.214 35.043 155.316 35.1992 154.294 35.1992ZM154.342 28.666C154.824 28.666 155.234 28.5456 155.573 28.3047C155.912 28.0638 156.169 27.7188 156.344 27.2695C156.527 26.8203 156.618 26.2832 156.618 25.6582C156.618 25.0267 156.527 24.4798 156.344 24.0176C156.169 23.5488 155.912 23.1908 155.573 22.9434C155.234 22.696 154.824 22.5723 154.342 22.5723C153.861 22.5723 153.451 22.6992 153.112 22.9531C152.78 23.207 152.526 23.5684 152.35 24.0371C152.175 24.5059 152.087 25.0462 152.087 25.6582C152.087 26.2767 152.175 26.8105 152.35 27.2598C152.533 27.709 152.79 28.0573 153.122 28.3047C153.454 28.5456 153.861 28.666 154.342 28.666ZM166.141 31.2051C165.08 31.2051 164.155 30.9772 163.368 30.5215C162.586 30.0658 161.984 29.4277 161.561 28.6074C161.138 27.7806 160.926 26.8236 160.926 25.7363C160.926 24.6426 161.138 23.6855 161.561 22.8652C161.984 22.0384 162.586 21.3971 163.368 20.9414C164.155 20.4857 165.08 20.2578 166.141 20.2578C167.189 20.2578 168.107 20.4857 168.895 20.9414C169.689 21.3971 170.295 22.0384 170.711 22.8652C171.128 23.6855 171.336 24.6426 171.336 25.7363C171.336 26.8236 171.128 27.7806 170.711 28.6074C170.295 29.4277 169.689 30.0658 168.895 30.5215C168.107 30.9772 167.189 31.2051 166.141 31.2051ZM166.161 28.9688C166.636 28.9688 167.043 28.8288 167.381 28.5488C167.72 28.2689 167.974 27.8848 168.143 27.3965C168.312 26.9017 168.397 26.3418 168.397 25.7168C168.397 25.0853 168.312 24.5254 168.143 24.0371C167.974 23.5488 167.72 23.1647 167.381 22.8848C167.043 22.6048 166.636 22.4648 166.161 22.4648C165.666 22.4648 165.246 22.6048 164.901 22.8848C164.556 23.1647 164.295 23.5488 164.12 24.0371C163.95 24.5254 163.863 25.0853 163.856 25.7168C163.863 26.3418 163.95 26.9017 164.12 27.3965C164.295 27.8848 164.556 28.2689 164.901 28.5488C165.246 28.8288 165.666 28.9688 166.161 28.9688ZM177.598 31.2051C176.537 31.2051 175.612 30.9772 174.825 30.5215C174.043 30.0658 173.441 29.4277 173.018 28.6074C172.595 27.7806 172.383 26.8236 172.383 25.7363C172.383 24.6426 172.595 23.6855 173.018 22.8652C173.441 22.0384 174.043 21.3971 174.825 20.9414C175.612 20.4857 176.537 20.2578 177.598 20.2578C178.646 20.2578 179.564 20.4857 180.352 20.9414C181.146 21.3971 181.752 22.0384 182.168 22.8652C182.585 23.6855 182.793 24.6426 182.793 25.7363C182.793 26.8236 182.585 27.7806 182.168 28.6074C181.752 29.4277 181.146 30.0658 180.352 30.5215C179.564 30.9772 178.646 31.2051 177.598 31.2051ZM177.618 28.9688C178.093 28.9688 178.5 28.8288 178.838 28.5488C179.177 28.2689 179.431 27.8848 179.6 27.3965C179.769 26.9017 179.854 26.3418 179.854 25.7168C179.854 25.0853 179.769 24.5254 179.6 24.0371C179.431 23.5488 179.177 23.1647 178.838 22.8848C178.5 22.6048 178.093 22.4648 177.618 22.4648C177.123 22.4648 176.703 22.6048 176.358 22.8848C176.013 23.1647 175.752 23.5488 175.577 24.0371C175.407 24.5254 175.319 25.0853 175.313 25.7168C175.319 26.3418 175.407 26.9017 175.577 27.3965C175.752 27.8848 176.013 28.2689 176.358 28.5488C176.703 28.8288 177.123 28.9688 177.618 28.9688ZM189.035 35.1992C188.078 35.1992 187.242 35.0625 186.526 34.7891C185.809 34.5156 185.246 34.1283 184.836 33.627C184.433 33.1257 184.201 32.5397 184.143 31.8691H186.985C187.069 32.2858 187.294 32.5951 187.658 32.7969C188.03 33.0052 188.511 33.1061 189.104 33.0996C189.807 33.1061 190.354 32.9434 190.744 32.6113C191.142 32.2858 191.343 31.7747 191.35 31.0781V29.125H191.223L191.184 29.2031C191.015 29.5221 190.803 29.8021 190.549 30.043C190.302 30.2773 189.976 30.4727 189.572 30.6289C189.175 30.7786 188.713 30.8535 188.186 30.8535C187.365 30.8535 186.63 30.6582 185.979 30.2676C185.328 29.877 184.813 29.291 184.436 28.5098C184.065 27.7285 183.879 26.7682 183.879 25.6289C183.879 24.4766 184.071 23.4967 184.455 22.6895C184.839 21.8757 185.354 21.2669 185.998 20.8633C186.649 20.4596 187.378 20.2578 188.186 20.2578C188.707 20.2578 189.162 20.3392 189.553 20.502C189.944 20.6647 190.256 20.873 190.49 21.127C190.731 21.3743 190.943 21.6673 191.125 22.0059C191.158 22.0514 191.187 22.1068 191.213 22.1719H191.33V20.3945H194.201V31.1172C194.201 31.9961 193.983 32.7415 193.547 33.3535C193.111 33.9655 192.505 34.4245 191.731 34.7305C190.956 35.043 190.058 35.1992 189.035 35.1992ZM189.084 28.666C189.566 28.666 189.976 28.5456 190.315 28.3047C190.653 28.0638 190.91 27.7188 191.086 27.2695C191.268 26.8203 191.36 26.2832 191.36 25.6582C191.36 25.0267 191.268 24.4798 191.086 24.0176C190.91 23.5488 190.653 23.1908 190.315 22.9434C189.976 22.696 189.566 22.5723 189.084 22.5723C188.602 22.5723 188.192 22.6992 187.854 22.9531C187.522 23.207 187.268 23.5684 187.092 24.0371C186.916 24.5059 186.828 25.0462 186.828 25.6582C186.828 26.2767 186.916 26.8105 187.092 27.2598C187.274 27.709 187.531 28.0573 187.864 28.3047C188.196 28.5456 188.602 28.666 189.084 28.666ZM198.998 31H196.107V16.8594H198.998V31ZM205.719 31.2051C204.644 31.2051 203.71 30.9837 202.916 30.541C202.128 30.0983 201.523 29.4668 201.1 28.6465C200.676 27.8262 200.465 26.8626 200.465 25.7559C200.465 24.6686 200.676 23.7083 201.1 22.875C201.529 22.0417 202.128 21.3971 202.896 20.9414C203.671 20.4857 204.573 20.2578 205.601 20.2578C206.552 20.2578 207.402 20.4596 208.15 20.8633C208.899 21.2604 209.488 21.8626 209.918 22.6699C210.354 23.4772 210.572 24.4635 210.572 25.6289V26.4395H201.646V24.6328H207.848C207.841 24.2096 207.743 23.8288 207.555 23.4902C207.372 23.1517 207.115 22.888 206.783 22.6992C206.451 22.5104 206.073 22.416 205.65 22.416C205.201 22.416 204.801 22.5202 204.449 22.7285C204.098 22.9303 203.821 23.2103 203.619 23.5684C203.424 23.9264 203.323 24.3171 203.316 24.7402V26.4395C203.316 26.9733 203.417 27.4355 203.619 27.8262C203.827 28.2103 204.114 28.5098 204.478 28.7246C204.843 28.9395 205.269 29.0469 205.758 29.0469C206.083 29.0404 206.379 28.9915 206.646 28.9004C206.913 28.8092 207.138 28.6888 207.32 28.5391C207.503 28.3828 207.646 28.2005 207.75 27.9922H210.504C210.361 28.6432 210.077 29.2096 209.654 29.6914C209.231 30.1732 208.684 30.5475 208.014 30.8145C207.343 31.0749 206.578 31.2051 205.719 31.2051ZM227.459 30.3066H211.677V29.2617H227.459V30.3066ZM220.115 29.7305H218.914V25.4141H220.115V29.7305ZM225.408 21.6641H214.929V25.3262H213.709V20.6387H224.197V17.6602H213.65V16.6152H225.408V21.6641ZM225.818 25.7949H213.709V24.7598H225.818V25.7949ZM243.869 21.1953H239.884V20.1602H243.869V21.1953ZM243.859 25.5312H239.738V24.4961H243.859V25.5312ZM247.814 32.5234H246.632V15.2871H247.814V32.5234ZM244.357 31.6055H243.175V15.7656H244.357V31.6055ZM240.519 17.543C240.512 19.0339 240.278 20.4596 239.816 21.8203C239.354 23.181 238.634 24.4538 237.658 25.6387C236.681 26.8236 235.447 27.862 233.956 28.7539L233.195 27.8359C234.542 27.0352 235.672 26.1042 236.583 25.043C237.501 23.9818 238.185 22.8359 238.634 21.6055C239.09 20.375 239.321 19.0859 239.328 17.7383V17.543H240.519ZM239.865 18.5781H233.888V17.543H239.865V18.5781ZM265.833 25.0723H250.072V24.0371H265.833V25.0723ZM258.519 24.5156H257.308V21.2539H258.519V24.5156ZM258.353 16.4297C258.353 17.4062 258.021 18.2917 257.357 19.0859C256.693 19.8737 255.84 20.5312 254.798 21.0586C253.756 21.5794 252.672 21.944 251.546 22.1523L251.068 21.1465C252.031 21.0098 252.998 20.7168 253.968 20.2676C254.938 19.8184 255.736 19.2585 256.361 18.5879C256.986 17.9173 257.298 17.1979 257.298 16.4297V15.5508H258.353V16.4297ZM258.529 16.4297C258.529 17.1914 258.844 17.9076 259.476 18.5781C260.114 19.2487 260.915 19.8118 261.878 20.2676C262.848 20.7168 263.815 21.0098 264.779 21.1465L264.271 22.1523C263.164 21.9505 262.09 21.5859 261.048 21.0586C260.013 20.5247 259.16 19.8607 258.49 19.0664C257.819 18.2656 257.487 17.3867 257.493 16.4297V15.5508H258.529V16.4297ZM263.812 32.5234H262.572V27.9238H251.82V26.918H263.812V32.5234Z" fill="#0F0F0F"/>
<rect x="0.5" y="0.5" width="347" height="47" rx="9.5" stroke="#E1E3EC"/>
</svg>
