<svg width="396" height="56" viewBox="0 0 396 56" fill="none" xmlns="http://www.w3.org/2000/svg">
<rect x="0.5" y="0.5" width="395" height="55" fill="white"/>
<path fill-rule="evenodd" clip-rule="evenodd" d="M138 28.2955C138 27.3733 137.922 26.4879 137.777 25.6367H126.245V30.6653H132.835C132.552 32.2904 131.689 33.667 130.392 34.5891V37.8505H134.35C136.665 35.5873 138.001 32.2549 138.001 28.2955H138Z" fill="#3E82F1"/>
<path fill-rule="evenodd" clip-rule="evenodd" d="M126.245 41.0005C129.551 41.0005 132.323 39.8358 134.349 37.8506L130.391 34.5893C129.294 35.3694 127.893 35.8299 126.244 35.8299C123.054 35.8299 120.355 33.5434 119.392 30.4707H115.302V33.8386C117.318 38.087 121.458 41.0005 126.245 41.0005Z" fill="#32A753"/>
<path fill-rule="evenodd" clip-rule="evenodd" d="M119.393 30.4704C119.148 29.6902 119.009 28.8574 119.009 28.0002C119.009 27.1429 119.148 26.3101 119.393 25.53V22.1621H115.302C114.473 23.9171 114 25.9023 114 28.0002C114 30.098 114.473 32.0833 115.302 33.8382L119.393 30.4704Z" fill="#F9BB00"/>
<path fill-rule="evenodd" clip-rule="evenodd" d="M126.245 20.1706C128.043 20.1706 129.658 20.827 130.926 22.1142L134.439 18.385C132.318 16.2884 129.546 15 126.245 15C121.458 15 117.318 17.9135 115.302 22.1619L119.393 25.5298C120.356 22.4571 123.056 20.1706 126.245 20.1706Z" fill="#E74133"/>
<path d="M160.702 25.4199C160.572 24.9707 160.367 24.5866 160.087 24.2676C159.813 23.9421 159.475 23.6947 159.071 23.5254C158.667 23.3496 158.208 23.2617 157.694 23.2617C156.965 23.2617 156.324 23.444 155.77 23.8086C155.223 24.1732 154.794 24.707 154.481 25.4102C154.175 26.1068 154.022 26.9434 154.022 27.9199C154.022 28.903 154.175 29.7428 154.481 30.4395C154.787 31.1361 155.217 31.6699 155.77 32.041C156.324 32.4056 156.975 32.5911 157.723 32.5977C158.394 32.5977 158.977 32.474 159.471 32.2266C159.966 31.9792 160.341 31.6309 160.594 31.1816C160.848 30.7324 160.979 30.2018 160.985 29.5898L161.591 29.6777H157.919V27.4414H163.817V29.2188C163.817 30.4362 163.56 31.4974 163.046 32.4023C162.531 33.3008 161.809 33.9909 160.878 34.4727C159.953 34.9544 158.898 35.1953 157.714 35.1953C156.392 35.1953 155.227 34.9023 154.217 34.3164C153.215 33.724 152.437 32.8809 151.884 31.7871C151.33 30.6934 151.053 29.4108 151.053 27.9395C151.053 26.4551 151.34 25.1628 151.913 24.0625C152.486 22.9622 153.27 22.1224 154.266 21.543C155.262 20.957 156.389 20.6641 157.645 20.6641C158.693 20.6641 159.654 20.8659 160.526 21.2695C161.405 21.6667 162.118 22.2266 162.665 22.9492C163.218 23.6719 163.56 24.4954 163.69 25.4199H160.702ZM178.565 27.9297C178.565 29.4336 178.279 30.7324 177.706 31.8262C177.139 32.9199 176.355 33.7565 175.352 34.3359C174.356 34.9089 173.226 35.1953 171.963 35.1953C170.7 35.1953 169.568 34.9089 168.565 34.3359C167.569 33.7565 166.784 32.9199 166.211 31.8262C165.645 30.7259 165.362 29.4271 165.362 27.9297C165.362 26.4258 165.645 25.127 166.211 24.0332C166.784 22.9329 167.569 22.0964 168.565 21.5234C169.568 20.9505 170.7 20.6641 171.963 20.6641C173.226 20.6641 174.356 20.9505 175.352 21.5234C176.355 22.0964 177.139 22.9329 177.706 24.0332C178.279 25.127 178.565 26.4258 178.565 27.9297ZM175.596 27.9297C175.596 26.9336 175.447 26.0872 175.147 25.3906C174.854 24.694 174.434 24.1667 173.887 23.8086C173.34 23.444 172.699 23.2617 171.963 23.2617C171.234 23.2617 170.596 23.444 170.049 23.8086C169.509 24.1667 169.086 24.694 168.78 25.3906C168.48 26.0872 168.331 26.9336 168.331 27.9297C168.331 28.9193 168.48 29.7624 168.78 30.459C169.086 31.1491 169.509 31.6764 170.049 32.041C170.596 32.4056 171.234 32.5911 171.963 32.5977C172.699 32.5911 173.34 32.4056 173.887 32.041C174.434 31.6764 174.854 31.1491 175.147 30.459C175.447 29.7624 175.596 28.9193 175.596 27.9297ZM193.284 27.9297C193.284 29.4336 192.997 30.7324 192.424 31.8262C191.858 32.9199 191.073 33.7565 190.071 34.3359C189.075 34.9089 187.945 35.1953 186.682 35.1953C185.419 35.1953 184.286 34.9089 183.284 34.3359C182.287 33.7565 181.503 32.9199 180.93 31.8262C180.364 30.7259 180.08 29.4271 180.08 27.9297C180.08 26.4258 180.364 25.127 180.93 24.0332C181.503 22.9329 182.287 22.0964 183.284 21.5234C184.286 20.9505 185.419 20.6641 186.682 20.6641C187.945 20.6641 189.075 20.9505 190.071 21.5234C191.073 22.0964 191.858 22.9329 192.424 24.0332C192.997 25.127 193.284 26.4258 193.284 27.9297ZM190.315 27.9297C190.315 26.9336 190.165 26.0872 189.866 25.3906C189.573 24.694 189.153 24.1667 188.606 23.8086C188.059 23.444 187.418 23.2617 186.682 23.2617C185.953 23.2617 185.315 23.444 184.768 23.8086C184.228 24.1667 183.804 24.694 183.498 25.3906C183.199 26.0872 183.049 26.9336 183.049 27.9297C183.049 28.9193 183.199 29.7624 183.498 30.459C183.804 31.1491 184.228 31.6764 184.768 32.041C185.315 32.4056 185.953 32.5911 186.682 32.5977C187.418 32.5911 188.059 32.4056 188.606 32.041C189.153 31.6764 189.573 31.1491 189.866 30.459C190.165 29.7624 190.315 28.9193 190.315 27.9297ZM204.447 25.4199C204.317 24.9707 204.112 24.5866 203.832 24.2676C203.559 23.9421 203.22 23.6947 202.817 23.5254C202.413 23.3496 201.954 23.2617 201.44 23.2617C200.711 23.2617 200.069 23.444 199.516 23.8086C198.969 24.1732 198.539 24.707 198.227 25.4102C197.921 26.1068 197.768 26.9434 197.768 27.9199C197.768 28.903 197.921 29.7428 198.227 30.4395C198.533 31.1361 198.962 31.6699 199.516 32.041C200.069 32.4056 200.72 32.5911 201.469 32.5977C202.14 32.5977 202.722 32.474 203.217 32.2266C203.712 31.9792 204.086 31.6309 204.34 31.1816C204.594 30.7324 204.724 30.2018 204.731 29.5898L205.336 29.6777H201.664V27.4414H207.563V29.2188C207.563 30.4362 207.306 31.4974 206.791 32.4023C206.277 33.3008 205.554 33.9909 204.623 34.4727C203.699 34.9544 202.644 35.1953 201.459 35.1953C200.138 35.1953 198.972 34.9023 197.963 34.3164C196.961 33.724 196.183 32.8809 195.629 31.7871C195.076 30.6934 194.799 29.4108 194.799 27.9395C194.799 26.4551 195.086 25.1628 195.658 24.0625C196.231 22.9622 197.016 22.1224 198.012 21.543C199.008 20.957 200.134 20.6641 201.391 20.6641C202.439 20.6641 203.399 20.8659 204.272 21.2695C205.151 21.6667 205.864 22.2266 206.41 22.9492C206.964 23.6719 207.306 24.4954 207.436 25.4199H204.447ZM209.381 20.8594H212.311V32.5781H218.395V35H209.381V20.8594ZM219.959 20.8594H229.451V23.2812H222.889V26.7188H228.953V29.1309H222.889V32.5781H229.471V35H219.959V20.8594ZM246.738 34.3066H230.957V33.2617H246.738V34.3066ZM239.394 33.7305H238.193V29.4141H239.394V33.7305ZM244.687 25.6641H234.209V29.3262H232.988V24.6387H243.476V21.6602H232.929V20.6152H244.687V25.6641ZM245.097 29.7949H232.988V28.7598H245.097V29.7949ZM263.148 25.1953H259.164V24.1602H263.148V25.1953ZM263.138 29.5312H259.017V28.4961H263.138V29.5312ZM267.093 36.5234H265.912V19.2871H267.093V36.5234ZM263.636 35.6055H262.455V19.7656H263.636V35.6055ZM259.798 21.543C259.792 23.0339 259.557 24.4596 259.095 25.8203C258.633 27.181 257.914 28.4538 256.937 29.6387C255.96 30.8236 254.727 31.862 253.236 32.7539L252.474 31.8359C253.822 31.0352 254.951 30.1042 255.863 29.043C256.781 27.9818 257.464 26.8359 257.914 25.6055C258.369 24.375 258.6 23.0859 258.607 21.7383V21.543H259.798ZM259.144 22.5781H253.167V21.543H259.144V22.5781ZM285.113 29.0723H269.351V28.0371H285.113V29.0723ZM277.798 28.5156H276.587V25.2539H277.798V28.5156ZM277.632 20.4297C277.632 21.4062 277.3 22.2917 276.636 23.0859C275.972 23.8737 275.119 24.5312 274.077 25.0586C273.036 25.5794 271.952 25.944 270.825 26.1523L270.347 25.1465C271.31 25.0098 272.277 24.7168 273.247 24.2676C274.217 23.8184 275.015 23.2585 275.64 22.5879C276.265 21.9173 276.577 21.1979 276.577 20.4297V19.5508H277.632V20.4297ZM277.808 20.4297C277.808 21.1914 278.124 21.9076 278.755 22.5781C279.393 23.2487 280.194 23.8118 281.158 24.2676C282.128 24.7168 283.094 25.0098 284.058 25.1465L283.55 26.1523C282.443 25.9505 281.369 25.5859 280.327 25.0586C279.292 24.5247 278.439 23.8607 277.769 23.0664C277.098 22.2656 276.766 21.3867 276.773 20.4297V19.5508H277.808V20.4297ZM283.091 36.5234H281.851V31.9238H271.099V30.918H283.091V36.5234Z" fill="#0F0F0F"/>
<rect x="0.5" y="0.5" width="395" height="55" stroke="#E1E3EC"/>
</svg>
