<svg width="348" height="48" viewBox="0 0 348 48" fill="none" xmlns="http://www.w3.org/2000/svg">
<rect width="348" height="48" rx="10" fill="#FAE300"/>
<path d="M36 10C27.1632 10 20 15.5862 20 22.4774C20 26.9631 23.0354 30.8936 27.5901 33.0931C27.2552 34.3261 26.3783 37.5583 26.2026 38.25C25.9862 39.1086 26.5217 39.0971 26.8723 38.8657C27.1475 38.685 31.2571 35.9295 33.0301 34.7398C33.9924 34.8805 34.9846 34.9549 36 34.9549C44.8368 34.9549 52 29.3678 52 22.4774C52 15.587 44.8368 10 36 10Z" fill="#391B1B"/>
<path d="M29.6573 18.8027H25.049C24.6154 18.8027 24.2651 19.1543 24.2651 19.5877C24.2651 20.021 24.6162 20.3726 25.049 20.3726H26.5472V25.9017C26.5472 26.1028 26.6289 26.3007 26.7726 26.4438C26.913 26.5861 27.1098 26.6678 27.3115 26.6678H27.4789C27.6797 26.6678 27.8757 26.5861 28.0169 26.4438C28.1607 26.3007 28.2423 26.1036 28.2423 25.9017V20.3726H29.6573C30.0909 20.3726 30.4419 20.021 30.4419 19.5877C30.4419 19.1543 30.0909 18.8027 29.6573 18.8027Z" fill="#FAE300"/>
<path d="M40.7339 25.1902H38.5906V19.5434C38.5906 19.0724 38.2101 18.6914 37.7406 18.6914C37.2711 18.6914 36.8906 19.0724 36.8906 19.5434V25.6301C36.8906 25.6775 36.8963 25.7217 36.9037 25.7666C36.8955 25.8108 36.8906 25.8566 36.8906 25.9024C36.8906 26.2965 37.2082 26.6154 37.6018 26.6154H40.7339C41.1283 26.6154 41.4451 26.2965 41.4451 25.9024C41.4451 25.5082 41.1274 25.1902 40.7339 25.1902Z" fill="#FAE300"/>
<path d="M47.5827 25.4494L45.1945 22.3079L47.3525 20.146C47.6448 19.8541 47.6448 19.3791 47.3525 19.0863C47.0602 18.7936 46.5866 18.7936 46.2935 19.0863L43.6219 21.7617V19.5434C43.6219 19.0724 43.2414 18.6914 42.7719 18.6914C42.3024 18.6914 41.9211 19.0724 41.9211 19.5434V25.8173C41.9211 26.2883 42.3016 26.6693 42.7719 26.6693C43.2422 26.6693 43.6219 26.2891 43.6219 25.8173V23.8819L44.1077 23.3962L46.367 26.3652C46.6185 26.7012 47.0961 26.7707 47.4317 26.5164C47.7673 26.2638 47.835 25.7863 47.5827 25.4494Z" fill="#FAE300"/>
<path d="M36.2538 25.6538L33.957 19.3611C33.957 19.3611 33.9513 19.3562 33.9496 19.3537C33.8026 18.9702 33.3789 18.6914 32.8735 18.6914C32.3125 18.6914 31.8488 19.0348 31.7565 19.4837C31.741 19.5172 31.7255 19.5508 31.7124 19.5867L29.454 25.6538C29.3144 26.052 29.5234 26.487 29.9194 26.6268C30.3162 26.7666 30.7514 26.5573 30.891 26.1599L31.2821 25.043H34.4256L34.8159 26.1599C34.9555 26.5573 35.3907 26.7666 35.7876 26.6268C36.1844 26.487 36.3934 26.052 36.2538 25.6538ZM31.781 23.6162L32.8375 20.5974C32.8498 20.5974 32.8596 20.6006 32.8718 20.6006L33.9276 23.6162H31.7818H31.781Z" fill="#FAE300"/>
<line x1="68.5" y1="8.5" x2="68.5" y2="39.5" stroke="#C0A708" stroke-linecap="round"/>
<path d="M152.057 24.4375H152.487L155.934 20.3945H159.264L154.674 25.7168H154.001L152.057 27.9043V24.4375ZM149.44 16.8594H152.331V31H149.44V16.8594ZM152.907 26.3613L154.831 24.3105L159.46 31H156.071L152.907 26.3613ZM166.473 26.4199C166.297 26.4329 166.154 26.4427 166.043 26.4492C165.939 26.4557 165.786 26.4655 165.584 26.4785C165.044 26.498 164.569 26.5306 164.159 26.5762C163.644 26.6152 163.241 26.7552 162.948 26.9961C162.661 27.2305 162.515 27.5495 162.508 27.9531C162.508 28.2135 162.577 28.4382 162.713 28.627C162.85 28.8092 163.036 28.9492 163.27 29.0469C163.511 29.1445 163.788 29.1901 164.1 29.1836C164.53 29.1901 164.914 29.1087 165.252 28.9395C165.597 28.7637 165.864 28.526 166.053 28.2266C166.242 27.9206 166.336 27.582 166.336 27.2109L166.317 23.7832C166.317 23.4837 166.252 23.2298 166.122 23.0215C165.998 22.8066 165.809 22.6471 165.555 22.543C165.301 22.4323 164.995 22.377 164.637 22.377C164.142 22.377 163.742 22.4811 163.436 22.6895C163.137 22.8913 162.948 23.1777 162.87 23.5488H160.116C160.174 22.9238 160.392 22.3639 160.77 21.8691C161.148 21.3678 161.668 20.974 162.333 20.6875C163.003 20.401 163.794 20.2578 164.706 20.2578C165.526 20.2578 166.275 20.3815 166.952 20.6289C167.629 20.8763 168.172 21.2734 168.583 21.8203C168.993 22.3607 169.201 23.0378 169.208 23.8516V31H166.463V29.5352H166.385C166.112 30.0495 165.715 30.4564 165.194 30.7559C164.68 31.0488 164.038 31.1953 163.27 31.1953C162.586 31.1953 161.981 31.0781 161.454 30.8438C160.926 30.6029 160.51 30.2448 160.204 29.7695C159.898 29.2943 159.745 28.7181 159.745 28.041C159.745 26.9408 160.109 26.14 160.838 25.6387C161.568 25.1309 162.518 24.8411 163.69 24.7695C164.009 24.7435 164.354 24.724 164.725 24.7109C165.103 24.6914 165.464 24.6719 165.809 24.6523C166.024 24.6458 166.239 24.6393 166.454 24.6328L166.473 26.4199ZM173.682 24.4375H174.112L177.559 20.3945H180.889L176.299 25.7168H175.625L173.682 27.9043V24.4375ZM171.065 16.8594H173.955V31H171.065V16.8594ZM174.532 26.3613L176.455 24.3105L181.084 31H177.696L174.532 26.3613ZM188.098 26.4199C187.922 26.4329 187.779 26.4427 187.668 26.4492C187.564 26.4557 187.411 26.4655 187.209 26.4785C186.669 26.498 186.194 26.5306 185.783 26.5762C185.269 26.6152 184.865 26.7552 184.572 26.9961C184.286 27.2305 184.139 27.5495 184.133 27.9531C184.133 28.2135 184.201 28.4382 184.338 28.627C184.475 28.8092 184.66 28.9492 184.895 29.0469C185.136 29.1445 185.412 29.1901 185.725 29.1836C186.154 29.1901 186.539 29.1087 186.877 28.9395C187.222 28.7637 187.489 28.526 187.678 28.2266C187.867 27.9206 187.961 27.582 187.961 27.2109L187.942 23.7832C187.942 23.4837 187.876 23.2298 187.746 23.0215C187.623 22.8066 187.434 22.6471 187.18 22.543C186.926 22.4323 186.62 22.377 186.262 22.377C185.767 22.377 185.367 22.4811 185.061 22.6895C184.761 22.8913 184.572 23.1777 184.494 23.5488H181.74C181.799 22.9238 182.017 22.3639 182.395 21.8691C182.772 21.3678 183.293 20.974 183.957 20.6875C184.628 20.401 185.419 20.2578 186.33 20.2578C187.151 20.2578 187.899 20.3815 188.576 20.6289C189.253 20.8763 189.797 21.2734 190.207 21.8203C190.617 22.3607 190.826 23.0378 190.832 23.8516V31H188.088V29.5352H188.01C187.736 30.0495 187.339 30.4564 186.819 30.7559C186.304 31.0488 185.663 31.1953 184.895 31.1953C184.211 31.1953 183.606 31.0781 183.078 30.8438C182.551 30.6029 182.134 30.2448 181.828 29.7695C181.522 29.2943 181.369 28.7181 181.369 28.041C181.369 26.9408 181.734 26.14 182.463 25.6387C183.192 25.1309 184.143 24.8411 185.315 24.7695C185.634 24.7435 185.979 24.724 186.35 24.7109C186.727 24.6914 187.089 24.6719 187.434 24.6523C187.649 24.6458 187.863 24.6393 188.078 24.6328L188.098 26.4199ZM197.465 31.2051C196.404 31.2051 195.479 30.9772 194.691 30.5215C193.91 30.0658 193.308 29.4277 192.885 28.6074C192.462 27.7806 192.25 26.8236 192.25 25.7363C192.25 24.6426 192.462 23.6855 192.885 22.8652C193.308 22.0384 193.91 21.3971 194.691 20.9414C195.479 20.4857 196.404 20.2578 197.465 20.2578C198.513 20.2578 199.431 20.4857 200.219 20.9414C201.013 21.3971 201.618 22.0384 202.035 22.8652C202.452 23.6855 202.66 24.6426 202.66 25.7363C202.66 26.8236 202.452 27.7806 202.035 28.6074C201.618 29.4277 201.013 30.0658 200.219 30.5215C199.431 30.9772 198.513 31.2051 197.465 31.2051ZM197.484 28.9688C197.96 28.9688 198.367 28.8288 198.705 28.5488C199.044 28.2689 199.298 27.8848 199.467 27.3965C199.636 26.9017 199.721 26.3418 199.721 25.7168C199.721 25.0853 199.636 24.5254 199.467 24.0371C199.298 23.5488 199.044 23.1647 198.705 22.8848C198.367 22.6048 197.96 22.4648 197.484 22.4648C196.99 22.4648 196.57 22.6048 196.225 22.8848C195.88 23.1647 195.619 23.5488 195.443 24.0371C195.274 24.5254 195.186 25.0853 195.18 25.7168C195.186 26.3418 195.274 26.9017 195.443 27.3965C195.619 27.8848 195.88 28.2689 196.225 28.5488C196.57 28.8288 196.99 28.9688 197.484 28.9688ZM219.556 30.3066H203.775V29.2617H219.556V30.3066ZM212.213 29.7305H211.012V25.4141H212.213V29.7305ZM217.506 21.6641H207.027V25.3262H205.806V20.6387H216.295V17.6602H205.748V16.6152H217.506V21.6641ZM217.916 25.7949H205.806V24.7598H217.916V25.7949ZM235.966 21.1953H231.982V20.1602H235.966V21.1953ZM235.957 25.5312H231.835V24.4961H235.957V25.5312ZM239.912 32.5234H238.73V15.2871H239.912V32.5234ZM236.455 31.6055H235.273V15.7656H236.455V31.6055ZM232.617 17.543C232.61 19.0339 232.376 20.4596 231.914 21.8203C231.451 23.181 230.732 24.4538 229.755 25.6387C228.779 26.8236 227.545 27.862 226.054 28.7539L225.293 27.8359C226.64 27.0352 227.77 26.1042 228.681 25.043C229.599 23.9818 230.283 22.8359 230.732 21.6055C231.188 20.375 231.419 19.0859 231.425 17.7383V17.543H232.617ZM231.962 18.5781H225.986V17.543H231.962V18.5781ZM257.931 25.0723H242.169V24.0371H257.931V25.0723ZM250.617 24.5156H249.406V21.2539H250.617V24.5156ZM250.451 16.4297C250.451 17.4062 250.119 18.2917 249.454 19.0859C248.79 19.8737 247.938 20.5312 246.896 21.0586C245.854 21.5794 244.77 21.944 243.644 22.1523L243.165 21.1465C244.129 21.0098 245.096 20.7168 246.066 20.2676C247.036 19.8184 247.833 19.2585 248.458 18.5879C249.083 17.9173 249.396 17.1979 249.396 16.4297V15.5508H250.451V16.4297ZM250.626 16.4297C250.626 17.1914 250.942 17.9076 251.574 18.5781C252.212 19.2487 253.012 19.8118 253.976 20.2676C254.946 20.7168 255.913 21.0098 256.876 21.1465L256.369 22.1523C255.262 21.9505 254.188 21.5859 253.146 21.0586C252.111 20.5247 251.258 19.8607 250.587 19.0664C249.917 18.2656 249.585 17.3867 249.591 16.4297V15.5508H250.626V16.4297ZM255.91 32.5234H254.669V27.9238H243.917V26.918H255.91V32.5234Z" fill="#0F0F0F"/>
</svg>
