<svg width="396" height="56" viewBox="0 0 396 56" fill="none" xmlns="http://www.w3.org/2000/svg">
<rect width="396" height="56" fill="#FAE300"/>
<g clip-path="url(#clip0_1000_8835)">
<path d="M138.5 14C129.663 14 122.5 19.5862 122.5 26.4774C122.5 30.9631 125.535 34.8936 130.09 37.0931C129.755 38.3261 128.878 41.5583 128.703 42.25C128.486 43.1086 129.022 43.0971 129.372 42.8657C129.647 42.685 133.757 39.9295 135.53 38.7398C136.492 38.8805 137.485 38.9549 138.5 38.9549C147.337 38.9549 154.5 33.3678 154.5 26.4774C154.5 19.587 147.337 14 138.5 14Z" fill="#391B1B"/>
<path d="M132.157 22.8027H127.549C127.115 22.8027 126.765 23.1543 126.765 23.5877C126.765 24.021 127.116 24.3726 127.549 24.3726H129.047V29.9017C129.047 30.1028 129.129 30.3007 129.273 30.4438C129.413 30.5861 129.61 30.6678 129.811 30.6678H129.979C130.18 30.6678 130.376 30.5861 130.517 30.4438C130.661 30.3007 130.742 30.1036 130.742 29.9017V24.3726H132.157C132.591 24.3726 132.942 24.021 132.942 23.5877C132.942 23.1543 132.591 22.8027 132.157 22.8027V22.8027Z" fill="#FAE300"/>
<path d="M143.234 29.1902H141.091V23.5434C141.091 23.0724 140.71 22.6914 140.241 22.6914C139.771 22.6914 139.391 23.0724 139.391 23.5434V29.6301C139.391 29.6775 139.396 29.7217 139.404 29.7666C139.396 29.8108 139.391 29.8566 139.391 29.9024C139.391 30.2965 139.708 30.6154 140.102 30.6154H143.234C143.628 30.6154 143.945 30.2965 143.945 29.9024C143.945 29.5082 143.627 29.1902 143.234 29.1902V29.1902Z" fill="#FAE300"/>
<path d="M150.083 29.4494L147.694 26.3079L149.852 24.146C150.145 23.8541 150.145 23.3791 149.852 23.0863C149.56 22.7936 149.087 22.7936 148.793 23.0863L146.122 25.7617V23.5434C146.122 23.0724 145.741 22.6914 145.272 22.6914C144.802 22.6914 144.421 23.0724 144.421 23.5434V29.8173C144.421 30.2883 144.802 30.6693 145.272 30.6693C145.742 30.6693 146.122 30.2891 146.122 29.8173V27.8819L146.608 27.3962L148.867 30.3652C149.118 30.7012 149.596 30.7707 149.932 30.5164C150.267 30.2638 150.335 29.7863 150.083 29.4494V29.4494Z" fill="#FAE300"/>
<path d="M138.754 29.6538L136.457 23.3611C136.457 23.3611 136.451 23.3562 136.45 23.3537C136.303 22.9702 135.879 22.6914 135.373 22.6914C134.813 22.6914 134.349 23.0348 134.257 23.4837C134.241 23.5172 134.225 23.5508 134.212 23.5867L131.954 29.6538C131.814 30.052 132.023 30.487 132.419 30.6268C132.816 30.7666 133.251 30.5573 133.391 30.1599L133.782 29.043H136.926L137.316 30.1599C137.456 30.5573 137.891 30.7666 138.288 30.6268C138.684 30.487 138.893 30.052 138.754 29.6538ZM134.281 27.6162L135.338 24.5974C135.35 24.5974 135.36 24.6006 135.372 24.6006L136.428 27.6162H134.282H134.281Z" fill="#FAE300"/>
</g>
<path d="M166.557 28.4375H166.987L170.434 24.3945H173.764L169.174 29.7168H168.501L166.557 31.9043V28.4375ZM163.94 20.8594H166.831V35H163.94V20.8594ZM167.407 30.3613L169.331 28.3105L173.96 35H170.571L167.407 30.3613ZM180.973 30.4199C180.797 30.4329 180.654 30.4427 180.543 30.4492C180.439 30.4557 180.286 30.4655 180.084 30.4785C179.544 30.498 179.069 30.5306 178.659 30.5762C178.144 30.6152 177.741 30.7552 177.448 30.9961C177.161 31.2305 177.015 31.5495 177.008 31.9531C177.008 32.2135 177.077 32.4382 177.213 32.627C177.35 32.8092 177.536 32.9492 177.77 33.0469C178.011 33.1445 178.288 33.1901 178.6 33.1836C179.03 33.1901 179.414 33.1087 179.752 32.9395C180.097 32.7637 180.364 32.526 180.553 32.2266C180.742 31.9206 180.836 31.582 180.836 31.2109L180.817 27.7832C180.817 27.4837 180.752 27.2298 180.622 27.0215C180.498 26.8066 180.309 26.6471 180.055 26.543C179.801 26.4323 179.495 26.377 179.137 26.377C178.642 26.377 178.242 26.4811 177.936 26.6895C177.637 26.8913 177.448 27.1777 177.37 27.5488H174.616C174.674 26.9238 174.892 26.3639 175.27 25.8691C175.648 25.3678 176.168 24.974 176.833 24.6875C177.503 24.401 178.294 24.2578 179.206 24.2578C180.026 24.2578 180.775 24.3815 181.452 24.6289C182.129 24.8763 182.672 25.2734 183.083 25.8203C183.493 26.3607 183.701 27.0378 183.708 27.8516V35H180.963V33.5352H180.885C180.612 34.0495 180.215 34.4564 179.694 34.7559C179.18 35.0488 178.538 35.1953 177.77 35.1953C177.086 35.1953 176.481 35.0781 175.954 34.8438C175.426 34.6029 175.01 34.2448 174.704 33.7695C174.398 33.2943 174.245 32.7181 174.245 32.041C174.245 30.9408 174.609 30.14 175.338 29.6387C176.068 29.1309 177.018 28.8411 178.19 28.7695C178.509 28.7435 178.854 28.724 179.225 28.7109C179.603 28.6914 179.964 28.6719 180.309 28.6523C180.524 28.6458 180.739 28.6393 180.954 28.6328L180.973 30.4199ZM188.182 28.4375H188.612L192.059 24.3945H195.389L190.799 29.7168H190.125L188.182 31.9043V28.4375ZM185.565 20.8594H188.455V35H185.565V20.8594ZM189.032 30.3613L190.955 28.3105L195.584 35H192.196L189.032 30.3613ZM202.598 30.4199C202.422 30.4329 202.279 30.4427 202.168 30.4492C202.064 30.4557 201.911 30.4655 201.709 30.4785C201.169 30.498 200.694 30.5306 200.283 30.5762C199.769 30.6152 199.365 30.7552 199.072 30.9961C198.786 31.2305 198.639 31.5495 198.633 31.9531C198.633 32.2135 198.701 32.4382 198.838 32.627C198.975 32.8092 199.16 32.9492 199.395 33.0469C199.636 33.1445 199.912 33.1901 200.225 33.1836C200.654 33.1901 201.039 33.1087 201.377 32.9395C201.722 32.7637 201.989 32.526 202.178 32.2266C202.367 31.9206 202.461 31.582 202.461 31.2109L202.442 27.7832C202.442 27.4837 202.376 27.2298 202.246 27.0215C202.123 26.8066 201.934 26.6471 201.68 26.543C201.426 26.4323 201.12 26.377 200.762 26.377C200.267 26.377 199.867 26.4811 199.561 26.6895C199.261 26.8913 199.072 27.1777 198.994 27.5488H196.24C196.299 26.9238 196.517 26.3639 196.895 25.8691C197.272 25.3678 197.793 24.974 198.457 24.6875C199.128 24.401 199.919 24.2578 200.83 24.2578C201.651 24.2578 202.399 24.3815 203.076 24.6289C203.753 24.8763 204.297 25.2734 204.707 25.8203C205.117 26.3607 205.326 27.0378 205.332 27.8516V35H202.588V33.5352H202.51C202.236 34.0495 201.839 34.4564 201.319 34.7559C200.804 35.0488 200.163 35.1953 199.395 35.1953C198.711 35.1953 198.106 35.0781 197.578 34.8438C197.051 34.6029 196.634 34.2448 196.328 33.7695C196.022 33.2943 195.869 32.7181 195.869 32.041C195.869 30.9408 196.234 30.14 196.963 29.6387C197.692 29.1309 198.643 28.8411 199.815 28.7695C200.134 28.7435 200.479 28.724 200.85 28.7109C201.227 28.6914 201.589 28.6719 201.934 28.6523C202.149 28.6458 202.363 28.6393 202.578 28.6328L202.598 30.4199ZM211.965 35.2051C210.904 35.2051 209.979 34.9772 209.191 34.5215C208.41 34.0658 207.808 33.4277 207.385 32.6074C206.962 31.7806 206.75 30.8236 206.75 29.7363C206.75 28.6426 206.962 27.6855 207.385 26.8652C207.808 26.0384 208.41 25.3971 209.191 24.9414C209.979 24.4857 210.904 24.2578 211.965 24.2578C213.013 24.2578 213.931 24.4857 214.719 24.9414C215.513 25.3971 216.118 26.0384 216.535 26.8652C216.952 27.6855 217.16 28.6426 217.16 29.7363C217.16 30.8236 216.952 31.7806 216.535 32.6074C216.118 33.4277 215.513 34.0658 214.719 34.5215C213.931 34.9772 213.013 35.2051 211.965 35.2051ZM211.984 32.9688C212.46 32.9688 212.867 32.8288 213.205 32.5488C213.544 32.2689 213.798 31.8848 213.967 31.3965C214.136 30.9017 214.221 30.3418 214.221 29.7168C214.221 29.0853 214.136 28.5254 213.967 28.0371C213.798 27.5488 213.544 27.1647 213.205 26.8848C212.867 26.6048 212.46 26.4648 211.984 26.4648C211.49 26.4648 211.07 26.6048 210.725 26.8848C210.38 27.1647 210.119 27.5488 209.943 28.0371C209.774 28.5254 209.686 29.0853 209.68 29.7168C209.686 30.3418 209.774 30.9017 209.943 31.3965C210.119 31.8848 210.38 32.2689 210.725 32.5488C211.07 32.8288 211.49 32.9688 211.984 32.9688ZM234.056 34.3066H218.275V33.2617H234.056V34.3066ZM226.713 33.7305H225.512V29.4141H226.713V33.7305ZM232.006 25.6641H221.527V29.3262H220.306V24.6387H230.795V21.6602H220.248V20.6152H232.006V25.6641ZM232.416 29.7949H220.306V28.7598H232.416V29.7949ZM250.466 25.1953H246.482V24.1602H250.466V25.1953ZM250.457 29.5312H246.335V28.4961H250.457V29.5312ZM254.412 36.5234H253.23V19.2871H254.412V36.5234ZM250.955 35.6055H249.773V19.7656H250.955V35.6055ZM247.117 21.543C247.11 23.0339 246.876 24.4596 246.414 25.8203C245.951 27.181 245.232 28.4538 244.255 29.6387C243.279 30.8236 242.045 31.862 240.554 32.7539L239.793 31.8359C241.14 31.0352 242.27 30.1042 243.181 29.043C244.099 27.9818 244.783 26.8359 245.232 25.6055C245.688 24.375 245.919 23.0859 245.925 21.7383V21.543H247.117ZM246.462 22.5781H240.486V21.543H246.462V22.5781ZM272.431 29.0723H256.669V28.0371H272.431V29.0723ZM265.117 28.5156H263.906V25.2539H265.117V28.5156ZM264.951 20.4297C264.951 21.4062 264.619 22.2917 263.954 23.0859C263.29 23.8737 262.438 24.5312 261.396 25.0586C260.354 25.5794 259.27 25.944 258.144 26.1523L257.665 25.1465C258.629 25.0098 259.596 24.7168 260.566 24.2676C261.536 23.8184 262.333 23.2585 262.958 22.5879C263.583 21.9173 263.896 21.1979 263.896 20.4297V19.5508H264.951V20.4297ZM265.126 20.4297C265.126 21.1914 265.442 21.9076 266.074 22.5781C266.712 23.2487 267.512 23.8118 268.476 24.2676C269.446 24.7168 270.413 25.0098 271.376 25.1465L270.869 26.1523C269.762 25.9505 268.688 25.5859 267.646 25.0586C266.611 24.5247 265.758 23.8607 265.087 23.0664C264.417 22.2656 264.085 21.3867 264.091 20.4297V19.5508H265.126V20.4297ZM270.41 36.5234H269.169V31.9238H258.417V30.918H270.41V36.5234Z" fill="#0F0F0F"/>
<defs>
<clipPath id="clip0_1000_8835">
<rect width="32" height="32" fill="white" transform="translate(122.5 12)"/>
</clipPath>
</defs>
</svg>
