<svg width="32" height="32" viewBox="0 0 32 32" fill="none" xmlns="http://www.w3.org/2000/svg">
<path d="M28.9876 26.4989C27.1217 23.2846 24.135 20.8721 20.6001 19.7239C22.2945 18.7164 23.6112 17.1804 24.3479 15.352C25.0847 13.5235 25.2007 11.5038 24.6783 9.60298C24.1558 7.70219 23.0237 6.0255 21.456 4.8305C19.8882 3.6355 17.9714 2.98828 16.0001 2.98828C14.0288 2.98828 12.1121 3.6355 10.5443 4.8305C8.9765 6.0255 7.84442 7.70219 7.32197 9.60298C6.79951 11.5038 6.91557 13.5235 7.65233 15.352C8.38908 17.1804 9.70577 18.7164 11.4001 19.7239C7.86524 20.8721 4.87854 23.2846 3.01262 26.4989C2.92101 26.6496 2.87256 26.8226 2.87256 26.9989C2.87256 27.1753 2.92101 27.3482 3.01262 27.4989C3.09809 27.6522 3.22333 27.7795 3.37513 27.8675C3.52693 27.9555 3.69967 28.0009 3.87512 27.9989H28.1251C28.3006 28.0009 28.4733 27.9555 28.6251 27.8675C28.7769 27.7795 28.9021 27.6522 28.9876 27.4989C29.0792 27.3482 29.1277 27.1753 29.1277 26.9989C29.1277 26.8226 29.0792 26.6496 28.9876 26.4989V26.4989Z" fill="#00208F"/>
</svg>
