<svg width="98" height="98" viewBox="0 0 98 98" fill="none" xmlns="http://www.w3.org/2000/svg">
<rect x="1" y="1" width="96" height="96" rx="21" fill="white" stroke="#3556E1" stroke-width="2"/>
<path d="M84.6159 91.8016C79.499 82.8053 71.3085 76.0532 61.6147 72.8397C66.2611 70.0198 69.8719 65.7209 71.8923 60.6035C73.9128 55.4861 74.231 49.8332 72.7983 44.5132C71.3655 39.1933 68.261 34.5006 63.9617 31.156C59.6623 27.8114 54.4059 26 49 26C43.5941 26 38.3377 27.8114 34.0383 31.156C29.739 34.5006 26.6345 39.1933 25.2017 44.5132C23.769 49.8332 24.0872 55.4861 26.1077 60.6035C28.1281 65.7209 31.7389 70.0198 36.3853 72.8397C26.6915 76.0532 18.501 82.8053 13.3841 91.8016C13.1329 92.2234 13 92.7074 13 93.201C13 93.6946 13.1329 94.1787 13.3841 94.6004C13.6185 95.0293 13.9619 95.3857 14.3782 95.632C14.7945 95.8783 15.2682 96.0054 15.7493 95.9998H82.2507C82.7318 96.0054 83.2055 95.8783 83.6218 95.632C84.0381 95.3857 84.3815 95.0293 84.6159 94.6004C84.8671 94.1787 85 93.6946 85 93.201C85 92.7074 84.8671 92.2234 84.6159 91.8016Z" fill="#3556E1"/>
</svg>
