<svg width="348" height="48" viewBox="0 0 348 48" fill="none" xmlns="http://www.w3.org/2000/svg">
<rect width="348" height="48" rx="10" fill="#06BE34"/>
<path d="M50 24C50 16.268 43.732 10 36 10C28.268 10 22 16.268 22 24C22 31.732 28.268 38 36 38C43.732 38 50 31.732 50 24Z" fill="#06BE34"/>
<path d="M46.2858 14.8574V32.0003H39.3828L32.6173 23.3716V32.0003H25.7144V14.8574H32.6173L39.3828 23.8364V14.8574H46.2858Z" fill="white"/>
<line x1="68.5" y1="8.5" x2="68.5" y2="39.5" stroke="white" stroke-linecap="round"/>
<path d="M161.206 31H158.667L152.456 22.0156H152.348V31H149.419V16.8594H151.997L158.159 25.834H158.286V16.8594H161.206V31ZM162.487 31L167.37 16.8594H171.139L176.032 31H172.877L169.313 20.0527H169.196L165.622 31H162.487ZM173.014 25.4434V27.7383H165.465V25.4434H173.014ZM181.463 27.6406H181.6L185.047 16.8594H188.309L183.416 31H179.647L174.764 16.8594H178.016L181.463 27.6406ZM189.57 16.8594H199.063V19.2812H192.5V22.7188H198.565V25.1309H192.5V28.5781H199.082V31H189.57V16.8594ZM201.008 16.8594H206.535C207.596 16.8594 208.508 17.0482 209.27 17.4258C210.031 17.7969 210.611 18.3307 211.008 19.0273C211.405 19.724 211.604 20.5378 211.604 21.4688C211.604 22.3997 211.402 23.2038 210.998 23.8809C210.601 24.5579 210.015 25.0788 209.24 25.4434C208.472 25.8014 207.548 25.9805 206.467 25.9805H202.727V23.5879H206.008C206.581 23.5879 207.059 23.5098 207.443 23.3535C207.827 23.1908 208.114 22.9564 208.303 22.6504C208.492 22.3379 208.586 21.944 208.586 21.4688C208.586 20.9935 208.492 20.5898 208.303 20.2578C208.114 19.9258 207.824 19.6784 207.434 19.5156C207.049 19.3529 206.571 19.2715 205.998 19.2715H203.938V31H201.008V16.8594ZM212.111 31H208.85L205.422 24.5742H208.596L212.111 31ZM228.646 30.3066H212.865V29.2617H228.646V30.3066ZM221.303 29.7305H220.101V25.4141H221.303V29.7305ZM226.596 21.6641H216.117V25.3262H214.896V20.6387H225.385V17.6602H214.838V16.6152H226.596V21.6641ZM227.006 25.7949H214.896V24.7598H227.006V25.7949ZM245.056 21.1953H241.072V20.1602H245.056V21.1953ZM245.046 25.5312H240.925V24.4961H245.046V25.5312ZM249.001 32.5234H247.82V15.2871H249.001V32.5234ZM245.544 31.6055H244.363V15.7656H245.544V31.6055ZM241.707 17.543C241.7 19.0339 241.466 20.4596 241.003 21.8203C240.541 23.181 239.822 24.4538 238.845 25.6387C237.869 26.8236 236.635 27.862 235.144 28.7539L234.382 27.8359C235.73 27.0352 236.86 26.1042 237.771 25.043C238.689 23.9818 239.373 22.8359 239.822 21.6055C240.278 20.375 240.509 19.0859 240.515 17.7383V17.543H241.707ZM241.052 18.5781H235.076V17.543H241.052V18.5781ZM267.021 25.0723H251.259V24.0371H267.021V25.0723ZM259.706 24.5156H258.495V21.2539H259.706V24.5156ZM259.54 16.4297C259.54 17.4062 259.208 18.2917 258.544 19.0859C257.88 19.8737 257.027 20.5312 255.986 21.0586C254.944 21.5794 253.86 21.944 252.734 22.1523L252.255 21.1465C253.219 21.0098 254.186 20.7168 255.156 20.2676C256.126 19.8184 256.923 19.2585 257.548 18.5879C258.173 17.9173 258.486 17.1979 258.486 16.4297V15.5508H259.54V16.4297ZM259.716 16.4297C259.716 17.1914 260.032 17.9076 260.663 18.5781C261.301 19.2487 262.102 19.8118 263.066 20.2676C264.036 20.7168 265.003 21.0098 265.966 21.1465L265.458 22.1523C264.352 21.9505 263.277 21.5859 262.236 21.0586C261.201 20.5247 260.348 19.8607 259.677 19.0664C259.007 18.2656 258.675 17.3867 258.681 16.4297V15.5508H259.716V16.4297ZM264.999 32.5234H263.759V27.9238H253.007V26.918H264.999V32.5234Z" fill="white"/>
</svg>
