<svg width="396" height="52" viewBox="0 0 396 52" fill="none" xmlns="http://www.w3.org/2000/svg">
<rect width="396" height="52" fill="#06BE34"/>
<path d="M146.25 26C146.25 19.2345 140.765 13.75 134 13.75C127.235 13.75 121.75 19.2345 121.75 26C121.75 32.7655 127.235 38.25 134 38.25C140.765 38.25 146.25 32.7655 146.25 26Z" fill="#06BE34"/>
<path d="M143 18V33H136.96L131.04 25.4499V33H125V18H131.04L136.96 25.8566V18H143Z" fill="white"/>
<path d="M169.206 33H166.667L160.456 24.0156H160.348V33H157.419V18.8594H159.997L166.159 27.834H166.286V18.8594H169.206V33ZM170.487 33L175.37 18.8594H179.139L184.032 33H180.877L177.313 22.0527H177.196L173.622 33H170.487ZM181.014 27.4434V29.7383H173.465V27.4434H181.014ZM189.463 29.6406H189.6L193.047 18.8594H196.309L191.416 33H187.647L182.764 18.8594H186.016L189.463 29.6406ZM197.57 18.8594H207.063V21.2812H200.5V24.7188H206.565V27.1309H200.5V30.5781H207.082V33H197.57V18.8594ZM209.008 18.8594H214.535C215.596 18.8594 216.508 19.0482 217.27 19.4258C218.031 19.7969 218.611 20.3307 219.008 21.0273C219.405 21.724 219.604 22.5378 219.604 23.4688C219.604 24.3997 219.402 25.2038 218.998 25.8809C218.601 26.5579 218.015 27.0788 217.24 27.4434C216.472 27.8014 215.548 27.9805 214.467 27.9805H210.727V25.5879H214.008C214.581 25.5879 215.059 25.5098 215.443 25.3535C215.827 25.1908 216.114 24.9564 216.303 24.6504C216.492 24.3379 216.586 23.944 216.586 23.4688C216.586 22.9935 216.492 22.5898 216.303 22.2578C216.114 21.9258 215.824 21.6784 215.434 21.5156C215.049 21.3529 214.571 21.2715 213.998 21.2715H211.938V33H209.008V18.8594ZM220.111 33H216.85L213.422 26.5742H216.596L220.111 33ZM236.646 32.3066H220.865V31.2617H236.646V32.3066ZM229.303 31.7305H228.101V27.4141H229.303V31.7305ZM234.596 23.6641H224.117V27.3262H222.896V22.6387H233.385V19.6602H222.838V18.6152H234.596V23.6641ZM235.006 27.7949H222.896V26.7598H235.006V27.7949ZM253.056 23.1953H249.072V22.1602H253.056V23.1953ZM253.046 27.5312H248.925V26.4961H253.046V27.5312ZM257.001 34.5234H255.82V17.2871H257.001V34.5234ZM253.544 33.6055H252.363V17.7656H253.544V33.6055ZM249.707 19.543C249.7 21.0339 249.466 22.4596 249.003 23.8203C248.541 25.181 247.822 26.4538 246.845 27.6387C245.869 28.8236 244.635 29.862 243.144 30.7539L242.382 29.8359C243.73 29.0352 244.86 28.1042 245.771 27.043C246.689 25.9818 247.373 24.8359 247.822 23.6055C248.278 22.375 248.509 21.0859 248.515 19.7383V19.543H249.707ZM249.052 20.5781H243.076V19.543H249.052V20.5781ZM275.021 27.0723H259.259V26.0371H275.021V27.0723ZM267.706 26.5156H266.495V23.2539H267.706V26.5156ZM267.54 18.4297C267.54 19.4062 267.208 20.2917 266.544 21.0859C265.88 21.8737 265.027 22.5312 263.986 23.0586C262.944 23.5794 261.86 23.944 260.734 24.1523L260.255 23.1465C261.219 23.0098 262.186 22.7168 263.156 22.2676C264.126 21.8184 264.923 21.2585 265.548 20.5879C266.173 19.9173 266.486 19.1979 266.486 18.4297V17.5508H267.54V18.4297ZM267.716 18.4297C267.716 19.1914 268.032 19.9076 268.663 20.5781C269.301 21.2487 270.102 21.8118 271.066 22.2676C272.036 22.7168 273.003 23.0098 273.966 23.1465L273.458 24.1523C272.352 23.9505 271.277 23.5859 270.236 23.0586C269.201 22.5247 268.348 21.8607 267.677 21.0664C267.007 20.2656 266.675 19.3867 266.681 18.4297V17.5508H267.716V18.4297ZM272.999 34.5234H271.759V29.9238H261.007V28.918H272.999V34.5234Z" fill="white"/>
</svg>
