<svg width="32" height="32" viewBox="0 0 32 32" fill="none" xmlns="http://www.w3.org/2000/svg">
<rect x="0.5" y="0.5" width="31" height="31" rx="9.5" fill="white"/>
<path d="M10.161 24.6532L10.161 24.6532L10.1648 24.6501L12.5874 22.625H22.875C23.306 22.625 23.7193 22.4538 24.024 22.149C24.3288 21.8443 24.5 21.431 24.5 21V11C24.5 10.569 24.3288 10.1557 24.024 9.85095C23.7193 9.5462 23.306 9.375 22.875 9.375H9.125C8.69402 9.375 8.2807 9.54621 7.97595 9.85095C7.67121 10.1557 7.5 10.569 7.5 11V23.4062H7.49997L7.50003 23.4142C7.50247 23.7215 7.59198 24.0217 7.75818 24.2802C7.92438 24.5387 8.16046 24.7447 8.43902 24.8744C8.71759 25.0041 9.02722 25.0522 9.33201 25.0131C9.6368 24.9739 9.92423 24.8491 10.161 24.6532ZM12.701 22.5298C12.6967 22.5335 12.6924 22.5371 12.6881 22.5405L12.4455 22.2503L12.4455 22.2344L12.701 22.5298ZM12.4453 22.2342V22.2501L12.0469 21.7734L12.4453 22.2342Z" fill="white" stroke="#3556E1" stroke-width="2" stroke-linecap="round" stroke-linejoin="round"/>
<path d="M16 16.9375C16.5178 16.9375 16.9375 16.5178 16.9375 16C16.9375 15.4822 16.5178 15.0625 16 15.0625C15.4822 15.0625 15.0625 15.4822 15.0625 16C15.0625 16.5178 15.4822 16.9375 16 16.9375Z" fill="#3556E1"/>
<path d="M12.25 16.9375C12.7678 16.9375 13.1875 16.5178 13.1875 16C13.1875 15.4822 12.7678 15.0625 12.25 15.0625C11.7322 15.0625 11.3125 15.4822 11.3125 16C11.3125 16.5178 11.7322 16.9375 12.25 16.9375Z" fill="#3556E1"/>
<path d="M19.75 16.9375C20.2678 16.9375 20.6875 16.5178 20.6875 16C20.6875 15.4822 20.2678 15.0625 19.75 15.0625C19.2322 15.0625 18.8125 15.4822 18.8125 16C18.8125 16.5178 19.2322 16.9375 19.75 16.9375Z" fill="#3556E1"/>
<rect x="0.5" y="0.5" width="31" height="31" rx="9.5" stroke="#D3D5DE"/>
</svg>
