<?xml version="1.0" encoding="UTF-8"?>
<svg id="_레이어_1" data-name="레이어 1" xmlns="http://www.w3.org/2000/svg" viewBox="0 0 361.59 143.51">
  <defs>
    <style>
      .cls-1 {
        fill: #3556e1;
      }
    </style>
  </defs>
  <path class="cls-1" d="M0,124.78v-34.29L55.85,2.65h49.49V86.95h11.66v37.82h-11.66v15.91H52.31v-15.91H0Zm44.71-55.67l-3.18,4.77c13.43,6.36,24.04,7.95,34.11,7.95v-5.3c-9.37,0-18.73-2.12-30.93-7.42Z"/>
  <path class="cls-1" d="M123.35,71.76C123.35,24.57,145.44,0,179.38,0s56.2,24.57,56.2,71.76-22.09,71.76-56.2,71.76-56.03-24.39-56.03-71.76Zm35.52-7.25l-3.18,4.77c13.43,6.36,31.46,7.95,48.25,7.95v-5.3c-16.79,0-32.87-2.12-45.07-7.42Z"/>
  <path class="cls-1" d="M244.59,124.78v-34.29L300.43,2.65h49.49V86.95h11.66v37.82h-11.66v15.91h-53.02v-15.91h-52.31Zm44.71-55.67l-3.18,4.77c13.43,6.36,24.04,7.95,34.11,7.95v-5.3c-9.37,0-18.73-2.12-30.93-7.42Z"/>
</svg>