<?xml version="1.0" encoding="UTF-8"?>
<svg id="_최종" data-name="최종" xmlns="http://www.w3.org/2000/svg" viewBox="0 0 676.06 378.8">
  <defs>
    <style>
      .cls-1, .cls-2 {
        fill: #3556e1;
      }

      .cls-2 {
        stroke: #fff;
        stroke-linejoin: round;
        stroke-width: 2px;
      }

      .cls-2, .cls-3 {
        stroke-linecap: round;
      }

      .cls-3 {
        fill: #fff;
        stroke: #3556e1;
        stroke-miterlimit: 10;
        stroke-width: 3px;
      }
    </style>
  </defs>
  <g>
    <g>
      <path class="cls-2" d="M80.06,258.09s1.72,0,2.57,0h0c6.36,0,11.52-5.16,11.52-11.52v-5.75c0-4.14-1.67-6.58-4.1-8.77-.74-.66-1.36-1.44-1.84-2.3l-.97-1.74-4.31-8.29c-1.24-3.01-4.96-4.26-7.83-2.35-2.1,1.4-2.79,4.2-1.82,6.53l2.22,5.39s0,0,0,0h-10.17c-2.39,0-4.56,1.67-4.93,4.04-.41,2.67,1.39,5.02,3.85,5.48,.29,.05,6.65,.08,6.95,.08-.3,0-6.66,.03-6.95,.08-2.22,.42-3.91,2.37-3.91,4.72s1.68,4.3,3.91,4.72c.29,.05,6.65,.08,6.95,.08-.3,0-6.66,.03-6.95,.08-2.46,.46-4.26,2.8-3.85,5.48,.36,2.37,2.53,4.04,4.93,4.04h13.26s1.47,0,1.47,0Z"/>
      <rect class="cls-2" x="60.34" y="229.63" width="16.91" height="9.58" rx="4.36" ry="4.36"/>
      <rect class="cls-2" x="60.34" y="239.2" width="16.91" height="9.58" rx="4.36" ry="4.36"/>
      <rect class="cls-2" x="60.34" y="248.78" width="16.91" height="9.58" rx="4.36" ry="4.36"/>
      <path class="cls-2" d="M76.29,238.51s2.17,4.73,7.56,5.48"/>
    </g>
    <path class="cls-2" d="M74.44,229.63s-1.72,0-2.57,0h0c-6.36,0-11.52-5.16-11.52-11.52v-5.75c0-4.14,1.67-6.58,4.1-8.77,.74-.66,1.36-1.44,1.84-2.3l.97-1.74,4.31-8.29c1.24-3.01,4.96-4.26,7.83-2.35,2.1,1.4,2.79,4.2,1.82,6.53l-2.22,5.39s0,0,0,0h10.17c2.39,0,4.56,1.67,4.93,4.04,.41,2.67-1.39,5.02-3.85,5.48-.29,.05-6.65,.08-6.95,.08,.3,0,6.66,.03,6.95,.08,2.22,.42,3.91,2.37,3.91,4.72s-1.68,4.3-3.91,4.72c-.29,.05-6.65,.08-6.95,.08,.3,0,6.66,.03,6.95,.08,2.46,.46,4.26,2.8,3.85,5.48-.36,2.37-2.53,4.04-4.93,4.04h-13.26s-1.47,0-1.47,0Z"/>
  </g>
  <path class="cls-1" d="M158.7,252.36h-17.34v-14.04h-7.52c-5.04,9-14.4,13.26-27,14.04v-15.66c10.26-1.08,15.12-6.48,15.12-19.44-4.32,1.08-10.32,1.5-15.12,1.32v-15.48h31.26v15.66h3.26v-15.66h17.34v49.26Z"/>
  <path class="cls-1" d="M164.74,252.36v-15.66c10.26-1.08,13.92-6.48,13.92-19.44-4.32,1.08-9.12,1.5-13.92,1.32v-15.48h31.26v15.84c0,22.62-11.76,32.22-31.26,33.42Zm51.87,0h-17.34v-49.26h17.34v49.26Z"/>
  <path class="cls-1" d="M222.72,227.7c0-19.02,6.06-25.5,16.2-25.5,8.28,0,13.8,4.26,15.6,15.96h2.34v-15.06h17.34v49.26h-17.34v-17.1h-2.04c-1.5,13.2-7.2,17.94-15.9,17.94-10.14,0-16.2-6.48-16.2-25.5Zm10.56-3.12l-1.08,1.62c3.96,1.8,8.88,2.7,13.38,2.7v-1.8c-4.5,0-8.76-1.08-12.3-2.52Z"/>
  <path class="cls-1" d="M354.53,220.86v-17.76h14.94v49.26h-14.94v-18.18h-3.28v18.18h-14.94v-49.26h14.94v17.76h3.28Z"/>
  <path class="cls-3" d="M319.57,203.1c-4.95,0-9.26,3.5-11.39,8.58-.53,1.27-2.27,1.27-2.8,0-2.12-5.08-6.44-8.58-11.39-8.58-7.03,0-12.79,7.07-12.79,15.72v17.82c0,8.65,5.76,15.72,12.79,15.72,4.95,0,9.26-3.5,11.39-8.58,.53-1.27,2.27-1.27,2.8,0,2.12,5.08,6.44,8.58,11.39,8.58,7.03,0,12.79-7.07,12.79-15.72v-17.82c0-8.65-5.76-15.72-12.79-15.72Z"/>
  <rect class="cls-1" x="292.48" y="213.62" width="14.3" height="28.2" rx="6.7" ry="6.7"/>
  <rect class="cls-1" x="318.06" y="213.62" width="14.3" height="28.2" rx="6.7" ry="6.7"/>
</svg>