<?xml version="1.0" encoding="UTF-8"?>
<svg id="_최종" data-name="최종" xmlns="http://www.w3.org/2000/svg" viewBox="0 0 676.06 378.8">
  <defs>
    <style>
      .cls-1 {
        fill: #3556e1;
      }

      .cls-2 {
        fill: #fff;
        stroke: #3556e1;
        stroke-linecap: round;
        stroke-miterlimit: 10;
        stroke-width: 3px;
      }
    </style>
  </defs>
  <path class="cls-1" d="M158.7,252.36h-17.34v-14.04h-7.52c-5.04,9-14.4,13.26-27,14.04v-15.66c10.26-1.08,15.12-6.48,15.12-19.44-4.32,1.08-10.32,1.5-15.12,1.32v-15.48h31.26v15.66h3.26v-15.66h17.34v49.26Z"/>
  <path class="cls-1" d="M164.74,252.36v-15.66c10.26-1.08,13.92-6.48,13.92-19.44-4.32,1.08-9.12,1.5-13.92,1.32v-15.48h31.26v15.84c0,22.62-11.76,32.22-31.26,33.42Zm51.87,0h-17.34v-49.26h17.34v49.26Z"/>
  <path class="cls-1" d="M222.72,227.7c0-19.02,6.06-25.5,16.2-25.5,8.28,0,13.8,4.26,15.6,15.96h2.34v-15.06h17.34v49.26h-17.34v-17.1h-2.04c-1.5,13.2-7.2,17.94-15.9,17.94-10.14,0-16.2-6.48-16.2-25.5Zm10.56-3.12l-1.08,1.62c3.96,1.8,8.88,2.7,13.38,2.7v-1.8c-4.5,0-8.76-1.08-12.3-2.52Z"/>
  <path class="cls-1" d="M354.53,220.86v-17.76h14.94v49.26h-14.94v-18.18h-3.28v18.18h-14.94v-49.26h14.94v17.76h3.28Z"/>
  <path class="cls-2" d="M319.57,203.1c-4.95,0-9.26,3.5-11.39,8.58-.53,1.27-2.27,1.27-2.8,0-2.12-5.08-6.44-8.58-11.39-8.58-7.03,0-12.79,7.07-12.79,15.72v17.82c0,8.65,5.76,15.72,12.79,15.72,4.95,0,9.26-3.5,11.39-8.58,.53-1.27,2.27-1.27,2.8,0,2.12,5.08,6.44,8.58,11.39,8.58,7.03,0,12.79-7.07,12.79-15.72v-17.82c0-8.65-5.76-15.72-12.79-15.72Z"/>
  <rect class="cls-1" x="292.48" y="213.62" width="14.3" height="28.2" rx="6.7" ry="6.7"/>
  <rect class="cls-1" x="318.06" y="213.62" width="14.3" height="28.2" rx="6.7" ry="6.7"/>
</svg>