<?xml version="1.0" encoding="UTF-8"?>
<svg id="_최종" data-name="최종" xmlns="http://www.w3.org/2000/svg" viewBox="0 0 676.06 378.8">
  <defs>
    <style>
      .cls-1 {
        fill: #3556e1;
      }

      .cls-2 {
        fill: #fff;
        stroke: #3556e1;
        stroke-linecap: round;
        stroke-miterlimit: 10;
        stroke-width: 3px;
      }
    </style>
  </defs>
  <path class="cls-2" d="M319.57,203.1c-4.95,0-9.26,3.5-11.39,8.58-.53,1.27-2.27,1.27-2.8,0-2.12-5.08-6.44-8.58-11.39-8.58-7.03,0-12.79,7.07-12.79,15.72v17.82c0,8.65,5.76,15.72,12.79,15.72,4.95,0,9.26-3.5,11.39-8.58,.53-1.27,2.27-1.27,2.8,0,2.12,5.08,6.44,8.58,11.39,8.58,7.03,0,12.79-7.07,12.79-15.72v-17.82c0-8.65-5.76-15.72-12.79-15.72Z"/>
  <rect class="cls-1" x="292.48" y="213.62" width="14.3" height="28.2" rx="6.7" ry="6.7"/>
  <rect class="cls-1" x="318.06" y="213.62" width="14.3" height="28.2" rx="6.7" ry="6.7"/>
</svg>