<?xml version="1.0" encoding="UTF-8"?>
<svg id="_최종" data-name="최종" xmlns="http://www.w3.org/2000/svg" viewBox="0 0 676.06 378.8">
  <defs>
    <style>
      .cls-1 {
        fill: #3556e1;
        stroke: #fff;
        stroke-linecap: round;
        stroke-linejoin: round;
        stroke-width: 2px;
      }
    </style>
  </defs>
  <g>
    <path class="cls-1" d="M80.06,258.09s1.72,0,2.57,0h0c6.36,0,11.52-5.16,11.52-11.52v-5.75c0-4.14-1.67-6.58-4.1-8.77-.74-.66-1.36-1.44-1.84-2.3l-.97-1.74-4.31-8.29c-1.24-3.01-4.96-4.26-7.83-2.35-2.1,1.4-2.79,4.2-1.82,6.53l2.22,5.39s0,0,0,0h-10.17c-2.39,0-4.56,1.67-4.93,4.04-.41,2.67,1.39,5.02,3.85,5.48,.29,.05,6.65,.08,6.95,.08-.3,0-6.66,.03-6.95,.08-2.22,.42-3.91,2.37-3.91,4.72s1.68,4.3,3.91,4.72c.29,.05,6.65,.08,6.95,.08-.3,0-6.66,.03-6.95,.08-2.46,.46-4.26,2.8-3.85,5.48,.36,2.37,2.53,4.04,4.93,4.04h13.26s1.47,0,1.47,0Z"/>
    <rect class="cls-1" x="60.34" y="229.63" width="16.91" height="9.58" rx="4.36" ry="4.36"/>
    <rect class="cls-1" x="60.34" y="239.2" width="16.91" height="9.58" rx="4.36" ry="4.36"/>
    <rect class="cls-1" x="60.34" y="248.78" width="16.91" height="9.58" rx="4.36" ry="4.36"/>
    <path class="cls-1" d="M76.29,238.51s2.17,4.73,7.56,5.48"/>
  </g>
  <path class="cls-1" d="M74.44,229.63s-1.72,0-2.57,0h0c-6.36,0-11.52-5.16-11.52-11.52v-5.75c0-4.14,1.67-6.58,4.1-8.77,.74-.66,1.36-1.44,1.84-2.3l.97-1.74,4.31-8.29c1.24-3.01,4.96-4.26,7.83-2.35,2.1,1.4,2.79,4.2,1.82,6.53l-2.22,5.39s0,0,0,0h10.17c2.39,0,4.56,1.67,4.93,4.04,.41,2.67-1.39,5.02-3.85,5.48-.29,.05-6.65,.08-6.95,.08,.3,0,6.66,.03,6.95,.08,2.22,.42,3.91,2.37,3.91,4.72s-1.68,4.3-3.91,4.72c-.29,.05-6.65,.08-6.95,.08,.3,0,6.66,.03,6.95,.08,2.46,.46,4.26,2.8,3.85,5.48-.36,2.37-2.53,4.04-4.93,4.04h-13.26s-1.47,0-1.47,0Z"/>
</svg>